<?xml version="1.0" encoding="utf-8"?>
<!DOCTYPE svg PUBLIC "-//W3C//DTD SVG 1.1//EN" "http://www.w3.org/Graphics/SVG/1.1/DTD/svg11.dtd">
<svg version="1.1" id="Layer_2" xmlns="http://www.w3.org/2000/svg" xmlns:xlink="http://www.w3.org/1999/xlink" x="0px" y="0px"
	 width="301.351px" height="55.405px" viewBox="0 0 301.351 55.405" enable-background="new 0 0 301.351 55.405"
	 xml:space="preserve">
<path fill="#A35A5A" d="M121.051,36.473c-1.62,1.799-6.947,7.127-10.043,5.831c0.576,0.036,1.908-1.584,2.448-2.844
	c1.908-4.607,7.271-17.422,8.315-19.833c0.684-1.512-6.047-5.579-6.479-4.5c-1.212,2.963-5.248,13.608-7.488,21.328
	c-0.013,0.006-0.028,0.006-0.039,0.018c-1.584,1.799-6.191,7.127-9.287,5.831c0.576,0.036,1.835-1.62,2.412-2.844
	c1.368-2.808,3.348-7.523,4.139-9.611c0.504-1.296-6.191-4.715-6.839-3.492c-0.324,0.684-0.792,1.836-1.332,3.276
	c-1.908-1.8-4.751-3.563-6.803-3.563c-3.488,0-6.853,5.664-8.236,10.704c-2.142,2.237-9.567,8.646-14.48,7.042
	c-0.468-0.575-0.576-1.512-0.432-2.628c0.828,0.324,1.872,0.469,2.591,0.469c3.096,0,10.187-5.652,10.187-9.503
	c0-1.368-3.348-3.852-5.327-3.096c-0.504-1.404-4.212-2.987-5.58-2.987c-3.348,0-6.842,5.408-8.315,10.514
	c-1.722,1.89-6.902,6.992-9.94,5.72c0.576,0.036,1.908-1.584,2.412-2.844c1.944-4.607,5.867-13.606,6.911-16.018
	c0.684-1.548-6.047-5.615-6.515-4.5l-0.108,0.288c-3.096,5.111-9.503,13.066-14.254,18.789c2.844-7.055,6.515-16.665,7.235-18.393
	c0.684-1.512-6.047-5.579-6.515-4.5c-2.916,4.967-9.898,14.83-15.046,21.67c2.231-5.508,4.607-11.699,5.292-13.211
	c0.396-0.936-1.908-2.808-3.924-3.852c-0.972-1.404-4.355-4.463-5.183-4.283c-3.815,0.792-11.123,2.987-11.123,4.967
	c0,2.124,3.743,7.955,5.615,7.955c1.764,0,4.211-3.096,3.527-3.204c-1.872-0.288-4.427-1.224-4.427-1.908
	c0-0.324,3.959-1.044,8.135-1.98c-2.412,6.371-7.739,21.489-8.315,26.78c0,0,2.016,0.612,2.988,0.612
	c1.583-0.108,2.808-1.548,3.708-3.204c4.248-4.895,9.971-12.202,14.002-17.277c-2.699,7.703-5.507,16.45-5.867,19.869
	c0,0,2.016,0.612,3.024,0.612c1.368-0.071,2.483-1.188,3.312-2.592c4.248-4.716,9.646-10.654,13.426-14.794
	c-1.44,4.355-2.7,8.783-2.988,11.555c-0.18,1.512,5.255,5.075,6.624,5.075c1.872,0,5.208-2.653,7.475-4.979
	c0.007,0.027,0.011,0.057,0.018,0.083c0.54,2.052,7.739,5.147,10.151,5.147c3.563,0,8.365-2.983,11.248-5.44
	c0.064,0.236,0.14,0.459,0.237,0.652c1.152,2.269,6.516,4.536,7.667,4.536c1.332,0,2.951-2.844,4.319-5.796
	c-0.036,0.36-0.072,0.721-0.072,1.008c0,1.549,5.543,4.788,6.911,4.788c1.665,0,4.237-2.103,6.231-4.203
	c1.165,1.7,5.181,4.203,6.298,4.203c2.808,0,8.963-5.976,9.755-7.847C123.139,39.137,121.411,36.041,121.051,36.473z M73.495,30.713
	c0.828,0.936-2.448,6.695-5.939,7.991C69.032,34.457,72.487,29.561,73.495,30.713z M89.012,42.988
	c-1.188-0.937,1.404-11.339,5.291-11.339c0.648,0,1.188,0.504,1.548,0.972C94.411,35.752,90.416,44.104,89.012,42.988z"/>
<path fill="#A35A5A" d="M165.22,23.55c0.036-2.447-7.487-9.25-12.598-9.25c-7.019,0-20.697,2.771-20.697,6.119
	c0,2.124,3.743,7.955,5.615,7.955c1.764,0,4.211-3.096,3.527-3.204c-1.872-0.288-4.427-1.224-4.427-1.908
	c0-0.288,2.916-1.152,6.587-1.944c-2.448,6.407-7.739,21.453-8.315,26.744c0,0,2.016,0.612,2.988,0.612
	c1.836-0.108,3.204-2.052,4.104-3.995c0.9-1.872,2.34-5.4,3.815-9.071c1.044,0.972,2.412,1.979,2.988,1.979
	C152.874,37.588,165.185,26.718,165.22,23.55z M147.583,31.145c1.404-3.527,2.592-6.551,3.024-7.559
	c0.324-0.756-1.116-2.124-2.736-3.167c4.896-0.792,9.539-1.116,9.539,0.288C157.41,23.046,151.758,27.761,147.583,31.145z"/>
<path fill="#A35A5A" d="M291.329,36.473c-1.584,1.799-6.191,7.127-9.287,5.831c0.576,0.036,1.836-1.62,2.412-2.844
	c1.332-2.808,3.348-7.523,4.14-9.611c0.504-1.296-6.19-4.715-6.839-3.492l-0.217,0.468c-0.899,0.72-2.303,1.872-3.563,2.808
	c0.899-2.448,1.619-4.392,1.799-4.967l0.108-0.072c0.504-0.288-4.283-3.744-5.147-3.204c-0.863,0.54-4.176,5.832-4.176,7.955
	c0,0.576,0.612,1.44,1.404,2.268c-0.539,1.617-1.107,3.312-1.648,4.928c-1.793,1.974-9.597,8.939-14.696,7.274
	c-0.468-0.575-0.575-1.512-0.432-2.628c0.827,0.324,1.872,0.469,2.592,0.469c3.095,0,10.187-5.652,10.187-9.503
	c0-1.368-3.348-3.852-5.327-3.096c-0.505-1.404-4.212-2.987-5.579-2.987c-3.337,0-6.82,5.374-8.301,10.465
	c-1.63,1.852-6.169,7.051-9.232,5.769c0.576,0.036,1.836-1.62,2.412-2.844c1.332-2.808,3.348-7.523,4.139-9.611
	c0.504-1.296-6.19-4.715-6.838-3.492c-3.348,4.392-7.848,14.219-10.728,15.514c0.54-0.647,0.792-1.115,1.476-2.411
	c1.26-2.483,3.384-8.027,4.283-9.683c0.828-1.44-5.795-4.463-6.227-3.348c-0.762,1.894-2.283,6.211-3.519,10.193
	c-1.689,1.919-6.137,6.944-9.155,5.681c0.576,0.036,1.836-1.62,2.412-2.844c1.332-2.808,3.348-7.523,4.14-9.611
	c0.504-1.296-6.19-4.715-6.839-3.492c-3.348,4.392-7.848,14.219-10.727,15.514c0.539-0.647,0.791-1.115,1.476-2.411
	c1.26-2.483,3.384-8.027,4.283-9.683c0.828-1.44-5.795-4.463-6.227-3.348c-0.762,1.894-2.283,6.211-3.519,10.192
	c-1.688,1.92-6.137,6.945-9.155,5.682c0.576,0.036,1.835-1.62,2.412-2.844c1.368-2.808,3.348-7.523,4.139-9.611
	c0.504-1.296-6.191-4.715-6.839-3.492c-0.324,0.684-0.792,1.836-1.332,3.276c-1.908-1.8-4.751-3.563-6.803-3.563
	c-3.502,0-6.88,5.709-8.253,10.764c-1.921,2.056-6.801,6.688-9.71,5.47c0.576,0.036,1.908-1.584,2.448-2.844
	c1.908-4.607,7.271-17.422,8.315-19.833c0.684-1.512-6.047-5.579-6.479-4.5c-1.62,3.959-8.279,21.633-8.963,27.717
	c-0.18,1.512,5.291,5.075,6.623,5.075c1.85,0,5.145-2.592,7.41-4.896c0.045,0.127,0.094,0.249,0.15,0.36
	c1.152,2.269,6.516,4.536,7.667,4.536c1.332,0,2.951-2.844,4.319-5.796c-0.036,0.36-0.072,0.721-0.072,1.008
	c0,1.549,5.543,4.788,6.911,4.788c1.446,0,3.577-1.587,5.419-3.38c0.553,0.919,3.815,3.573,5.13,3.573
	c0.072,0,0.108,0.05,0.144,0.05h0.036c1.404-3,4.715-7.285,7.667-11.137c-0.684,2.557-1.152,4.835-1.152,6.202
	c0,1.549,5.543,4.739,6.911,4.739c1.446,0,3.577-1.609,5.419-3.402c0.554,0.919,3.815,3.56,5.131,3.56
	c0.072,0,0.107,0.038,0.144,0.038h0.036c1.404-3,4.715-7.285,7.667-11.137c-0.684,2.557-1.151,4.835-1.151,6.202
	c0,1.549,5.543,4.739,6.91,4.739c1.83,0,4.755-2.56,6.803-4.846c0.686,2.052,7.735,5.062,10.119,5.062
	c2.896,0,6.611-1.977,9.449-4.034c-0.083,0.291-0.13,0.483-0.125,0.534c0.037,0.647,5.184,4.066,5.221,3.022
	c0.035-0.469,0.467-3.601,0.936-7.021c0.756-1.979,1.691-4.464,2.555-6.875c0.865-0.144,1.873-0.468,2.916-0.828
	c-1.188,3.779-2.268,8.099-2.268,10.15c0,1.549,5.543,4.788,6.911,4.788c2.808,0,8.207-5.976,9.035-7.847
	C293.417,39.137,291.725,36.041,291.329,36.473z M261.774,30.713c0.828,0.936-2.447,6.695-5.939,7.991
	C257.311,34.457,260.766,29.561,261.774,30.713z M181.748,42.988c-1.188-0.937,1.404-11.339,5.291-11.339
	c0.648,0,1.188,0.504,1.548,0.972C187.146,35.752,183.151,44.104,181.748,42.988z"/>
<path fill="#FFFFFF" d="M123.301,34.222c-1.62,1.799-6.947,7.127-10.043,5.832c0.576,0.036,1.908-1.584,2.448-2.844
	c1.908-4.607,7.271-17.422,8.315-19.833c0.684-1.512-6.047-5.579-6.479-4.5c-1.212,2.963-5.248,13.608-7.487,21.327
	c-0.013,0.007-0.028,0.006-0.039,0.018c-1.584,1.799-6.191,7.127-9.287,5.832c0.576,0.036,1.835-1.62,2.412-2.844
	c1.368-2.808,3.348-7.523,4.139-9.611c0.504-1.296-6.191-4.715-6.839-3.492c-0.324,0.684-0.792,1.836-1.332,3.276
	c-1.908-1.8-4.751-3.563-6.803-3.563c-3.488,0-6.853,5.664-8.236,10.704c-2.142,2.237-9.567,8.646-14.48,7.042
	c-0.468-0.575-0.576-1.512-0.432-2.628c0.828,0.324,1.872,0.469,2.591,0.469c3.096,0,10.187-5.652,10.187-9.503
	c0-1.368-3.348-3.852-5.327-3.096c-0.504-1.404-4.212-2.987-5.58-2.987c-3.348,0-6.842,5.407-8.315,10.513
	c-1.722,1.891-6.902,6.993-9.94,5.721c0.576,0.036,1.908-1.584,2.412-2.844c1.944-4.607,5.867-13.606,6.911-16.018
	c0.684-1.548-6.047-5.615-6.515-4.5l-0.108,0.288c-3.096,5.111-9.503,13.066-14.254,18.789c2.844-7.055,6.515-16.665,7.235-18.393
	c0.684-1.512-6.047-5.579-6.515-4.5c-2.916,4.967-9.898,14.83-15.046,21.669c2.231-5.507,4.607-11.699,5.292-13.21
	c0.396-0.936-1.908-2.808-3.924-3.852c-0.972-1.404-4.355-4.463-5.183-4.283c-3.815,0.792-11.123,2.987-11.123,4.967
	c0,2.124,3.743,7.955,5.615,7.955c1.764,0,4.211-3.096,3.527-3.204c-1.872-0.288-4.427-1.224-4.427-1.908
	c0-0.324,3.959-1.044,8.135-1.98c-2.412,6.371-7.739,21.489-8.315,26.78c0,0,2.016,0.612,2.988,0.612
	c1.583-0.108,2.808-1.548,3.708-3.204c4.248-4.895,9.971-12.202,14.002-17.277c-2.699,7.703-5.507,16.45-5.867,19.869
	c0,0,2.016,0.612,3.024,0.612c1.368-0.071,2.483-1.188,3.312-2.592c4.248-4.716,9.646-10.654,13.426-14.794
	c-1.44,4.355-2.7,8.783-2.988,11.555c-0.18,1.512,5.255,5.075,6.624,5.075c1.872,0,5.208-2.653,7.475-4.979
	c0.007,0.027,0.011,0.057,0.018,0.083c0.54,2.052,7.739,5.147,10.151,5.147c3.563,0,8.365-2.983,11.248-5.44
	c0.064,0.236,0.14,0.459,0.237,0.652c1.152,2.269,6.516,4.536,7.667,4.536c1.332,0,2.951-2.844,4.319-5.796
	c-0.036,0.36-0.072,0.721-0.072,1.008c0,1.549,5.543,4.788,6.911,4.788c1.665,0,4.237-2.103,6.231-4.203
	c1.165,1.7,5.181,4.203,6.298,4.203c2.808,0,8.963-5.976,9.755-7.847C125.389,36.887,123.661,33.791,123.301,34.222z M75.745,28.463
	c0.828,0.936-2.448,6.695-5.939,7.991C71.282,32.207,74.737,27.311,75.745,28.463z M91.262,40.738
	c-1.188-0.937,1.404-11.339,5.291-11.339c0.648,0,1.188,0.504,1.548,0.972C96.661,33.502,92.666,41.854,91.262,40.738z"/>
<path fill="#FFFFFF" d="M167.47,21.3c0.036-2.447-7.487-9.25-12.598-9.25c-7.019,0-20.697,2.771-20.697,6.119
	c0,2.124,3.743,7.955,5.615,7.955c1.764,0,4.211-3.096,3.527-3.204c-1.872-0.288-4.427-1.224-4.427-1.908
	c0-0.288,2.916-1.152,6.587-1.944c-2.448,6.407-7.739,21.453-8.315,26.744c0,0,2.016,0.612,2.988,0.612
	c1.836-0.108,3.204-2.052,4.104-3.995c0.9-1.872,2.34-5.4,3.815-9.071c1.044,0.972,2.412,1.979,2.988,1.979
	C155.124,35.338,167.435,24.468,167.47,21.3z M149.833,28.895c1.404-3.527,2.592-6.551,3.024-7.559
	c0.324-0.756-1.116-2.124-2.736-3.167c4.896-0.792,9.539-1.116,9.539,0.288C159.66,20.796,154.008,25.511,149.833,28.895z"/>
<path fill="#FFFFFF" d="M293.579,34.222c-1.584,1.799-6.191,7.127-9.287,5.832c0.576,0.036,1.836-1.62,2.412-2.844
	c1.332-2.808,3.348-7.523,4.14-9.611c0.504-1.296-6.19-4.715-6.839-3.492l-0.217,0.468c-0.899,0.72-2.303,1.872-3.563,2.808
	c0.899-2.448,1.619-4.392,1.799-4.967l0.108-0.072c0.504-0.288-4.283-3.744-5.147-3.204c-0.863,0.54-4.176,5.832-4.176,7.955
	c0,0.576,0.612,1.44,1.404,2.268c-0.539,1.617-1.107,3.312-1.648,4.928c-1.793,1.974-9.597,8.939-14.696,7.274
	c-0.468-0.575-0.575-1.512-0.432-2.628c0.827,0.324,1.872,0.469,2.592,0.469c3.095,0,10.187-5.652,10.187-9.503
	c0-1.368-3.348-3.852-5.327-3.096c-0.505-1.404-4.212-2.987-5.579-2.987c-3.337,0-6.82,5.373-8.301,10.465
	c-1.63,1.852-6.169,7.051-9.232,5.769c0.576,0.036,1.836-1.62,2.412-2.844c1.332-2.808,3.348-7.523,4.139-9.611
	c0.504-1.296-6.19-4.715-6.838-3.492c-3.348,4.392-7.848,14.219-10.728,15.514c0.54-0.647,0.792-1.115,1.476-2.411
	c1.26-2.484,3.384-8.027,4.283-9.683c0.828-1.44-5.795-4.463-6.227-3.348c-0.762,1.894-2.283,6.211-3.519,10.192
	c-1.688,1.92-6.137,6.945-9.155,5.682c0.576,0.036,1.836-1.62,2.412-2.844c1.332-2.808,3.348-7.523,4.14-9.611
	c0.504-1.296-6.19-4.715-6.839-3.492c-3.348,4.392-7.848,14.219-10.727,15.514c0.539-0.647,0.791-1.115,1.476-2.411
	c1.26-2.484,3.384-8.027,4.283-9.683c0.828-1.44-5.795-4.463-6.228-3.348c-0.762,1.894-2.283,6.211-3.518,10.192
	c-1.688,1.919-6.137,6.946-9.155,5.682c0.576,0.036,1.835-1.62,2.412-2.844c1.368-2.808,3.348-7.523,4.139-9.611
	c0.504-1.296-6.191-4.715-6.839-3.492c-0.324,0.684-0.792,1.836-1.332,3.276c-1.908-1.8-4.751-3.563-6.803-3.563
	c-3.502,0-6.88,5.709-8.252,10.764c-1.921,2.055-6.801,6.688-9.711,5.47c0.576,0.036,1.908-1.584,2.448-2.844
	c1.908-4.607,7.271-17.422,8.315-19.833c0.684-1.512-6.047-5.579-6.479-4.5c-1.62,3.959-8.279,21.633-8.963,27.717
	c-0.18,1.512,5.291,5.075,6.623,5.075c1.85,0,5.145-2.592,7.41-4.896c0.045,0.127,0.094,0.249,0.15,0.36
	c1.152,2.269,6.516,4.536,7.667,4.536c1.332,0,2.951-2.844,4.319-5.796c-0.036,0.36-0.072,0.721-0.072,1.008
	c0,1.549,5.543,4.788,6.911,4.788c1.446,0,3.577-1.587,5.419-3.38c0.553,0.919,3.815,3.198,5.13,3.198
	c0.072,0,0.108-0.325,0.145-0.325h0.035c1.404-2,4.716-6.91,7.668-10.761c-0.684,2.556-1.152,5.022-1.152,6.389
	c0,1.549,5.543,4.833,6.911,4.833c1.446,0,3.577-1.563,5.419-3.355c0.554,0.919,3.815,3.208,5.131,3.208
	c0.072,0,0.107-0.313,0.144-0.313h0.036c1.404-2,4.715-6.91,7.667-10.761c-0.684,2.556-1.151,5.022-1.151,6.389
	c0,1.549,5.543,4.833,6.91,4.833c1.83,0,4.755-2.513,6.803-4.799c0.686,2.052,7.735,5.085,10.119,5.085
	c2.896,0,6.611-1.965,9.449-4.022c-0.083,0.291-0.13,0.489-0.125,0.54c0.037,0.647,5.184,4.069,5.221,3.025
	c0.035-0.469,0.467-3.6,0.936-7.02c0.756-1.979,1.691-4.463,2.555-6.875c0.865-0.144,1.873-0.467,2.916-0.827
	c-1.188,3.779-2.268,8.099-2.268,10.15c0,1.549,5.543,4.788,6.911,4.788c2.808,0,8.207-5.976,9.035-7.847
	C295.667,36.887,293.975,33.791,293.579,34.222z M264.024,28.463c0.828,0.936-2.447,6.695-5.939,7.991
	C259.561,32.207,263.016,27.311,264.024,28.463z M183.998,40.738c-1.188-0.937,1.404-11.339,5.291-11.339
	c0.648,0,1.188,0.504,1.548,0.972C189.396,33.502,185.401,41.854,183.998,40.738z"/>
</svg>
