<?xml version="1.0" encoding="utf-8"?>

<svg version="1.1" id="Layer_1" xmlns="http://www.w3.org/2000/svg" xmlns:xlink="http://www.w3.org/1999/xlink" x="0px" y="0px"
	 width="606px" height="828px" viewBox="44.5 -15.5 606 828" enable-background="new 44.5 -15.5 606 828" xml:space="preserve">
<g>
	<path class="icon" fill="#776f6f" d="M429.007,0.064c-29.083,1.213-56.633,12.309-71.938,36.663l-34.72,55.273
		c-0.249,0.385-0.587,0.719-0.835,1.11L86.811,466.692l-3.056,5l-0.275,6.111L69.037,759.166l-1.945,40.832l35.553-19.443
		l247.483-135.27l5.278-2.777l3.332-5l270.255-429.965c17.493-27.834,12.521-62.189-3.61-91.655
		c-16.133-29.471-43.799-57.112-78.883-79.16C511.416,14.678,475.059,2.095,441.504,0.341c-4.193-0.22-8.344-0.451-12.499-0.276
		H429.007z M430.674,45.616c2.615-0.071,5.413,0.125,8.332,0.276c23.358,1.221,53.824,11.179,83.327,29.721
		c29.503,18.54,51.542,41.423,62.773,61.939c9.481,17.323,11.079,30.668,7.499,40.553c-0.951-1.955-1.729-3.917-2.777-5.833
		c-16.133-29.471-43.521-57.11-78.605-79.16c-35.084-22.049-71.719-34.632-105.271-36.386c-2.145-0.111-4.249-0.268-6.388-0.276
		c6.271-6.267,16.248-10.417,31.107-10.833L430.674,45.616z M395.121,102.277c2.615-0.07,5.413-0.151,8.332,0
		c23.359,1.222,53.824,11.18,83.327,29.722c29.503,18.541,51.541,41.7,62.772,62.218c10.853,19.824,11.609,34.24,5.833,44.439
		l-19.166,30.832c-1.424-3.188-3.02-6.334-4.722-9.443c-15.545-28.396-42.248-55.312-76.661-76.938
		c-34.414-21.628-70.44-34.141-102.766-35.83c-3.57-0.187-7.037-0.104-10.555,0l18.609-29.721h0.275l0.561-1.111
		c5.839-8.312,16.648-13.675,34.163-14.165L395.121,102.277z M341.513,181.716c2.801-0.089,5.815,0.117,8.888,0.277
		c23.163,1.211,52.025,10.307,80.551,27.22L268.467,467.807c-42.367,25.225-82.207,22.146-119.155,14.166l-15.832-3.334
		l182.759-291.364c6.665-3.274,15.084-5.247,25.275-5.556L341.513,181.716z M267.075,486.412
		c-1.271,53.684,24.74,92.1,49.719,122.764l1.388,1.668l-158.317,86.381c-7.82-15.133-20.877-23.244-40.553-25.275l9.167-178.875
		l6.388,1.666c38.44,9.199,84.428,16.039,132.212-8.332L267.075,486.412z"/>
</g>
</svg>
